<svg width="1794" height="1461" viewBox="0 0 1794 1461" fill="none" xmlns="http://www.w3.org/2000/svg">
<g opacity="0.12">
<line x1="300" y1="472.5" x2="1345" y2="472.5" stroke="#858585" stroke-opacity="0.57"/>
<line x1="184" y1="792.5" x2="1461" y2="792.5" stroke="#858585" stroke-opacity="0.57"/>
<line x1="184" y1="728.5" x2="1461" y2="728.5" stroke="#858585" stroke-opacity="0.57"/>
<line x1="184" y1="1048.5" x2="1461" y2="1048.5" stroke="#858585" stroke-opacity="0.57"/>
<line x1="300" y1="408.5" x2="1345" y2="408.5" stroke="#858585" stroke-opacity="0.57"/>
<line x1="300" y1="664.5" x2="1345" y2="664.5" stroke="#858585" stroke-opacity="0.57"/>
<line x1="184" y1="984.5" x2="1461" y2="984.5" stroke="#858585" stroke-opacity="0.57"/>
<line x1="184" y1="344.5" x2="1461" y2="344.5" stroke="#858585" stroke-opacity="0.57"/>
<line x1="300" y1="600.5" x2="1345" y2="600.5" stroke="#858585" stroke-opacity="0.57"/>
<line x1="184" y1="920.5" x2="1461" y2="920.5" stroke="#858585" stroke-opacity="0.57"/>
<line x1="300" y1="536.5" x2="1345" y2="536.5" stroke="#858585" stroke-opacity="0.57"/>
<line x1="184" y1="856.5" x2="1461" y2="856.5" stroke="#858585" stroke-opacity="0.57"/>
<line x1="103" y1="248.5" x2="1543" y2="248.5" stroke="#858585" stroke-opacity="0.57"/>
<line x1="103" y1="80.5001" x2="1543" y2="80.5003" stroke="#858585" stroke-opacity="0.57"/>
<line x1="103" y1="0.5" x2="1543" y2="0.500126" stroke="#858585" stroke-opacity="0.57"/>
</g>
<g opacity="0.12">
<line x1="291.5" y1="1011" x2="291.5" y2="80" stroke="#858585" stroke-opacity="0.57"/>
<line x1="871.5" y1="793" x2="871.5" y2="536" stroke="#858585" stroke-opacity="0.57"/>
<line x1="1219.5" y1="793" x2="1219.5" y2="536" stroke="#858585" stroke-opacity="0.57"/>
<line x1="639.5" y1="793" x2="639.5" y2="536" stroke="#858585" stroke-opacity="0.57"/>
<line x1="1567.5" y1="1011" x2="1567.5" y2="80" stroke="#858585" stroke-opacity="0.57"/>
<line x1="523.5" y1="921" x2="523.5" y2="410" stroke="#858585" stroke-opacity="0.57"/>
<line x1="1451.5" y1="1011" x2="1451.5" y2="248" stroke="#858585" stroke-opacity="0.57"/>
<line x1="407.5" y1="1011" x2="407.5" y2="248" stroke="#858585" stroke-opacity="0.57"/>
<line x1="987.5" y1="793" x2="987.5" y2="536" stroke="#858585" stroke-opacity="0.57"/>
<line x1="1335.5" y1="921" x2="1335.5" y2="410" stroke="#858585" stroke-opacity="0.57"/>
</g>
<g opacity="0.12">
<g clip-path="url(#clip0_1873_1274)">
<mask id="path-26-inside-1_1873_1274" fill="white">
<path d="M1460 344H1579V729H1460V344Z"/>
</mask>
<line x1="1399.65" y1="389.124" x2="1595.13" y2="297.97" stroke="#555555" stroke-opacity="0.43"/>
<line x1="1399.65" y1="620.512" x2="1595.13" y2="529.359" stroke="#555555" stroke-opacity="0.43"/>
<line x1="1399.65" y1="504.818" x2="1595.13" y2="413.665" stroke="#555555" stroke-opacity="0.43"/>
<line x1="1399.65" y1="736.207" x2="1595.13" y2="645.053" stroke="#555555" stroke-opacity="0.43"/>
<line x1="1399.65" y1="405.651" x2="1595.13" y2="314.498" stroke="#555555" stroke-opacity="0.43"/>
<line x1="1399.65" y1="637.04" x2="1595.13" y2="545.887" stroke="#555555" stroke-opacity="0.43"/>
<line x1="1399.65" y1="521.346" x2="1595.13" y2="430.192" stroke="#555555" stroke-opacity="0.43"/>
<line x1="1399.65" y1="752.735" x2="1595.13" y2="661.581" stroke="#555555" stroke-opacity="0.43"/>
<line x1="1399.65" y1="422.179" x2="1595.13" y2="331.026" stroke="#555555" stroke-opacity="0.43"/>
<line x1="1399.65" y1="653.568" x2="1595.13" y2="562.414" stroke="#555555" stroke-opacity="0.43"/>
<line x1="1399.65" y1="537.874" x2="1595.13" y2="446.72" stroke="#555555" stroke-opacity="0.43"/>
<line x1="1399.65" y1="769.262" x2="1595.13" y2="678.109" stroke="#555555" stroke-opacity="0.43"/>
<line x1="1399.65" y1="438.707" x2="1595.13" y2="347.553" stroke="#555555" stroke-opacity="0.43"/>
<line x1="1399.65" y1="670.096" x2="1595.13" y2="578.942" stroke="#555555" stroke-opacity="0.43"/>
<line x1="1399.65" y1="554.401" x2="1595.13" y2="463.248" stroke="#555555" stroke-opacity="0.43"/>
<line x1="1399.65" y1="785.79" x2="1595.13" y2="694.637" stroke="#555555" stroke-opacity="0.43"/>
<line x1="1399.65" y1="455.235" x2="1595.13" y2="364.081" stroke="#555555" stroke-opacity="0.43"/>
<line x1="1399.65" y1="686.624" x2="1595.13" y2="595.47" stroke="#555555" stroke-opacity="0.43"/>
<line x1="1399.65" y1="570.929" x2="1595.13" y2="479.776" stroke="#555555" stroke-opacity="0.43"/>
<line x1="1399.65" y1="802.318" x2="1595.13" y2="711.164" stroke="#555555" stroke-opacity="0.43"/>
<line x1="1399.65" y1="471.763" x2="1595.13" y2="380.609" stroke="#555555" stroke-opacity="0.43"/>
<line x1="1399.65" y1="703.151" x2="1595.13" y2="611.998" stroke="#555555" stroke-opacity="0.43"/>
<line x1="1399.65" y1="587.457" x2="1595.13" y2="496.303" stroke="#555555" stroke-opacity="0.43"/>
<line x1="1399.65" y1="818.846" x2="1595.13" y2="727.692" stroke="#555555" stroke-opacity="0.43"/>
<line x1="1399.65" y1="488.29" x2="1595.13" y2="397.137" stroke="#555555" stroke-opacity="0.43"/>
<line x1="1399.65" y1="719.679" x2="1595.13" y2="628.526" stroke="#555555" stroke-opacity="0.43"/>
<line x1="1399.65" y1="603.985" x2="1595.13" y2="512.831" stroke="#555555" stroke-opacity="0.43"/>
</g>
<path d="M1460 345H1579V343H1460V345ZM1579 728H1460V730H1579V728Z" fill="#555555" fill-opacity="0.43" mask="url(#path-26-inside-1_1873_1274)"/>
</g>
<g opacity="0.12">
<g clip-path="url(#clip1_1873_1274)">
<mask id="path-55-inside-2_1873_1274" fill="white">
<path d="M66 344H185V729H66V344Z"/>
</mask>
<line x1="5.65002" y1="389.124" x2="201.129" y2="297.97" stroke="#555555" stroke-opacity="0.43"/>
<line x1="5.65002" y1="620.512" x2="201.129" y2="529.359" stroke="#555555" stroke-opacity="0.43"/>
<line x1="5.65002" y1="504.818" x2="201.129" y2="413.665" stroke="#555555" stroke-opacity="0.43"/>
<line x1="5.65002" y1="736.207" x2="201.129" y2="645.053" stroke="#555555" stroke-opacity="0.43"/>
<line x1="5.65002" y1="405.651" x2="201.129" y2="314.498" stroke="#555555" stroke-opacity="0.43"/>
<line x1="5.65002" y1="637.04" x2="201.129" y2="545.887" stroke="#555555" stroke-opacity="0.43"/>
<line x1="5.65002" y1="521.346" x2="201.129" y2="430.192" stroke="#555555" stroke-opacity="0.43"/>
<line x1="5.65002" y1="752.735" x2="201.129" y2="661.581" stroke="#555555" stroke-opacity="0.43"/>
<line x1="5.65002" y1="422.179" x2="201.129" y2="331.026" stroke="#555555" stroke-opacity="0.43"/>
<line x1="5.65002" y1="653.568" x2="201.129" y2="562.414" stroke="#555555" stroke-opacity="0.43"/>
<line x1="5.65002" y1="537.874" x2="201.129" y2="446.72" stroke="#555555" stroke-opacity="0.43"/>
<line x1="5.65002" y1="769.262" x2="201.129" y2="678.109" stroke="#555555" stroke-opacity="0.43"/>
<line x1="5.65002" y1="438.707" x2="201.129" y2="347.553" stroke="#555555" stroke-opacity="0.43"/>
<line x1="5.65002" y1="670.096" x2="201.129" y2="578.942" stroke="#555555" stroke-opacity="0.43"/>
<line x1="5.65002" y1="554.401" x2="201.129" y2="463.248" stroke="#555555" stroke-opacity="0.43"/>
<line x1="5.65002" y1="785.79" x2="201.129" y2="694.637" stroke="#555555" stroke-opacity="0.43"/>
<line x1="5.65002" y1="455.235" x2="201.129" y2="364.081" stroke="#555555" stroke-opacity="0.43"/>
<line x1="5.65002" y1="686.624" x2="201.129" y2="595.47" stroke="#555555" stroke-opacity="0.43"/>
<line x1="5.65002" y1="570.929" x2="201.129" y2="479.776" stroke="#555555" stroke-opacity="0.43"/>
<line x1="5.65002" y1="802.318" x2="201.129" y2="711.164" stroke="#555555" stroke-opacity="0.43"/>
<line x1="5.65002" y1="471.763" x2="201.129" y2="380.609" stroke="#555555" stroke-opacity="0.43"/>
<line x1="5.65002" y1="703.151" x2="201.129" y2="611.998" stroke="#555555" stroke-opacity="0.43"/>
<line x1="5.65002" y1="587.457" x2="201.129" y2="496.303" stroke="#555555" stroke-opacity="0.43"/>
<line x1="5.65002" y1="818.846" x2="201.129" y2="727.692" stroke="#555555" stroke-opacity="0.43"/>
<line x1="5.65002" y1="488.29" x2="201.129" y2="397.137" stroke="#555555" stroke-opacity="0.43"/>
<line x1="5.65002" y1="719.679" x2="201.129" y2="628.526" stroke="#555555" stroke-opacity="0.43"/>
<line x1="5.65002" y1="603.985" x2="201.129" y2="512.831" stroke="#555555" stroke-opacity="0.43"/>
</g>
<path d="M66 345H185V343H66V345ZM185 728H66V730H185V728Z" fill="#555555" fill-opacity="0.43" mask="url(#path-55-inside-2_1873_1274)"/>
</g>
<g opacity="0.1">
<g opacity="0.23" filter="url(#filter0_f_1873_1274)">
<path d="M383.867 776.075C338.534 716.404 168.483 852.679 168.483 852.679C157.882 872.381 145.714 913.949 181.85 922.607C333.474 958.937 304.435 1102.63 466.125 1018.52C466.125 1018.52 667.487 850.841 577.176 824.821C520.795 808.576 479.46 889.832 430.519 857.466C399.96 837.257 429.201 835.745 383.867 776.075Z" fill="#555555" fill-opacity="0.43"/>
</g>
<g opacity="0.23" filter="url(#filter1_f_1873_1274)">
<path d="M1213.49 675.898C1211.64 760.091 1456.53 759.113 1456.53 759.113C1479.63 749.194 1519.4 721.134 1493.67 688.249C1385.68 550.268 1511.7 444.164 1310.65 405.096C1310.65 405.096 1016.26 411.808 1077.51 497.847C1115.76 551.562 1208.94 508.982 1229.36 571.677C1242.11 610.822 1215.33 591.706 1213.49 675.898Z" fill="#555555" fill-opacity="0.43"/>
</g>
</g>
<defs>
<filter id="filter0_f_1873_1274" x="0.337204" y="603.661" width="757.438" height="598.165" filterUnits="userSpaceOnUse" color-interpolation-filters="sRGB">
<feFlood flood-opacity="0" result="BackgroundImageFix"/>
<feBlend mode="normal" in="SourceGraphic" in2="BackgroundImageFix" result="shape"/>
<feGaussianBlur stdDeviation="78.65" result="effect1_foregroundBlur_1873_1274"/>
</filter>
<filter id="filter1_f_1873_1274" x="911.829" y="247.796" width="747.499" height="668.617" filterUnits="userSpaceOnUse" color-interpolation-filters="sRGB">
<feFlood flood-opacity="0" result="BackgroundImageFix"/>
<feBlend mode="normal" in="SourceGraphic" in2="BackgroundImageFix" result="shape"/>
<feGaussianBlur stdDeviation="78.65" result="effect1_foregroundBlur_1873_1274"/>
</filter>
<clipPath id="clip0_1873_1274">
<path d="M1460 344H1579V729H1460V344Z" fill="white"/>
</clipPath>
<clipPath id="clip1_1873_1274">
<path d="M66 344H185V729H66V344Z" fill="white"/>
</clipPath>
</defs>
</svg>
